<svg xmlns="http://www.w3.org/2000/svg" xmlns:xlink="http://www.w3.org/1999/xlink" width="1920" height="1920" viewBox="0 0 1920 1920">
  <defs>
    <style>
      .cls-1 {
        fill: #7e00ff;
      }

      .cls-2 {
        fill: #fff;
      }

      .cls-2, .cls-3 {
        fill-rule: evenodd;
      }

      .cls-3 {
        fill: url(#linear-gradient);
      }
    </style>
    <linearGradient id="linear-gradient" x1="1320.765" y1="1334.94" x2="1320.765" y2="939.438" gradientUnits="userSpaceOnUse">
      <stop offset="0" stop-color="#a4a4a4"/>
      <stop offset="1" stop-color="#fff"/>
    </linearGradient>
  </defs>
  <circle class="cls-1" cx="960" cy="960" r="939"/>
  <path id="G" class="cls-2" d="M1279.63,1115.55c-4.7,120.62-113.58,194.25-266.32,194.25-233.414,0-375.187-172.32-375.187-349.34,0-195.037,165.272-349.343,353.259-349.343,93.208,0,194.258,42.3,264.748,108.093l185.64-254.566C1337.59,368.3,1151.95,300.156,991.382,297.806c-391.64,0-695.552,303.129-695.552,663.437S598.959,1620.76,1000,1620.76c284.892,0,526.312-156.59,613.632-413.28C1520.31,947.669,1279.63,1115.55,1279.63,1115.55Z"/>
  <path id="Ellipse_3_copy_2" data-name="Ellipse 3 copy 2" class="cls-3" d="M1428.79,939.423c109.22,0,197.76,88.537,197.76,197.757s-78.06,197.76-270.45,197.76c-55.55,0-341.1-24.94-341.1-24.94s216.03-18.33,216.03-172.82C1231.03,1027.96,1319.57,939.423,1428.79,939.423Z"/>
</svg>
